{"title":"A Knights Tale 2001 HDRip H264 AAC-Rx(Phoenix-RG)","uid":5772443,"size":2105051756,"categoryP":"video","categoryS":"hd___movies","magnet":"?xt=urn:btih:b4eed5fd2f073f64ae53ec7f310ee738061fa483&amp;dn=A+Knights+Tale+2001+HDRip+H264+AAC-Rx%28Phoenix-RG%29&amp;tr=udp%3A%2F%2Ftracker.openbittorrent.com%3A80&amp;tr=udp%3A%2F%2Fopen.demonii.com%3A1337&amp;tr=udp%3A%2F%2Ftracker.coppersurfer.tk%3A6969&amp;tr=udp%3A%2F%2Fexodus.desync.com%3A6969","seeders":0,"leechers":0,"uploader":"rev-x","files":7,"time":1282148579,"description":"A Knight Tale 2001 BRRip H264 AAC-Rx(Phoenix-RG).mp4\n      Format : MPEG-4\n      Format profile : Base Media\n      Codec ID : isom\n      File size : 1.96 GiB\n      Duration : 2h 12mn\n      Overall bit rate : 2 124 Kbps\n     \n      \n   Video #1\n      Format : AVC\n      Format/Info : Advanced Video Codec\n      Format profile : &lt;a class=&quot;__cf_email__&quot; href=&quot;/cdn-cgi/l/email-protection&quot; data-cfemail=&quot;440c2d232c0408706a75&quot;&gt;[email&amp;#160;protected]&lt;/a&gt;&lt;script data-cfhash='f9e31' type=&quot;text/javascript&quot;&gt;\n/* &lt;![CDATA[ */!function(){try{var t=&quot;currentScript&quot;in document?document.currentScript:function(){for(var t=document.getElementsByTagName(&quot;script&quot;),e=t.length;e--;)if(t[e].getAttribute(&quot;data-cfhash&quot;))return t[e]}();if(t&amp;&amp;t.previousSibling){var e,r,n,i,c=t.previousSibling,a=c.getAttribute(&quot;data-cfemail&quot;);if(a){for(e=&quot;&quot;,r=parseInt(a.substr(0,2),16),n=2;a.length-n;n+=2)i=parseInt(a.substr(n,2),16)^r,e+=String.fromCharCode(i);e=document.createTextNode(e),c.parentNode.replaceChild(e,c)}t.parentNode.removeChild(t);}}catch(u){}}()/* ]]&gt; */&lt;/script&gt;\n      Format settings, CABAC : Yes\n      Format settings, ReFrames : 3 frames\n      Codec ID : avc1\n      Codec ID/Info : Advanced Video Coding\n      Duration : 2h 12mn\n      Bit rate mode : Variable\n      Bit rate : 1 800 Kbps\n      Maximum bit rate : 5 361 Kbps\n      Width : 1 280 pixels\n      Height : 544 pixels\n      Display aspect ratio : 2.35\n      Frame rate mode : Constant\n      Frame rate : 23.976 fps\n      Resolution : 24 bits\n      Colorimetry : 4:2:0\n      Scan type : Progressive\n      Bits/(Pixel*Frame) : 0.108\n      Stream size : 1.66 GiB (85%)\n      Writing library : x264 core 65\n      \n   Audio #2\n      Format : AAC\n      Format/Info : Advanced Audio Codec\n      Format version : Version 4\n      Format profile : LC\n      Format settings, SBR : No\n      Codec ID : 40\n      Duration : 2h 12mn\n      Bit rate mode : Variable\n      Bit rate : 320 Kbps\n      Maximum bit rate : 436 Kbps\n      Channel(s) : 6 channels\n      Channel positions : Front: L C R, Rear: L R, LFE\n      Sampling rate : 48.0 KHz\n      Resolution : 16 bits\n      Stream size : 303 MiB (15%)\n \n\nSCREEN:\n &lt;a href=&quot;\nhttp://img822.imageshack.us/img822/6678/vlcsnap7161.jpg&quot; rel=&quot;nofollow&quot; target=&quot;_NEW&quot;&gt;\nhttp://img822.imageshack.us/img822/6678/vlcsnap7161.jpg&lt;/a&gt;\n &lt;a href=&quot;\nhttp://img716.imageshack.us/img716/912/vlcsnap820946.jpg&quot; rel=&quot;nofollow&quot; target=&quot;_NEW&quot;&gt;\nhttp://img716.imageshack.us/img716/912/vlcsnap820946.jpg&lt;/a&gt;\n &lt;a href=&quot;\nhttp://img210.imageshack.us/img210/5618/vlcsnap821446.jpg&quot; rel=&quot;nofollow&quot; target=&quot;_NEW&quot;&gt;\nhttp://img210.imageshack.us/img210/5618/vlcsnap821446.jpg&lt;/a&gt;\n","torrent":{"xt":"urn:btih:b4eed5fd2f073f64ae53ec7f310ee738061fa483","amp;dn":"A+Knights+Tale+2001+HDRip+H264+AAC-Rx%28Phoenix-RG%29","amp;tr":["udp%3A%2F%2Ftracker.openbittorrent.com%3A80","udp%3A%2F%2Fopen.demonii.com%3A1337","udp%3A%2F%2Ftracker.coppersurfer.tk%3A6969","udp%3A%2F%2Fexodus.desync.com%3A6969"],"infoHash":"b4eed5fd2f073f64ae53ec7f310ee738061fa483","infoHashBuffer":{"type":"Buffer","data":[180,238,213,253,47,7,63,100,174,83,236,127,49,14,231,56,6,31,164,131]},"announce":[],"urlList":[]}}